<svg width="66" height="48" viewBox="0 0 66 48" fill="none" xmlns="http://www.w3.org/2000/svg">
<defs>
<linearGradient id="baseGrad" x1="0" y1="0" x2="65.6643" y2="36.214" gradientUnits="userSpaceOnUse">
<stop stop-color="#9B4DFF"/>
<stop offset="0.539236" stop-color="#821CFF"/>
<stop offset="0.55" stop-color="#7E14FF"/>
<stop offset="1" stop-color="#1FB872"/>
</linearGradient>
<linearGradient id="topSheen" x1="8" y1="0" x2="42" y2="26" gradientUnits="userSpaceOnUse">
<stop stop-color="#FFFFFF" stop-opacity="0.6"/>
<stop offset="1" stop-color="#FFFFFF" stop-opacity="0"/>
</linearGradient>
<linearGradient id="bottomShade" x1="33" y1="18" x2="33" y2="37" gradientUnits="userSpaceOnUse">
<stop stop-color="#1B0A33" stop-opacity="0"/>
<stop offset="1" stop-color="#150826" stop-opacity="0.4"/>
</linearGradient>
<radialGradient id="cornerGlow" cx="0.24" cy="0.2" r="0.6">
<stop stop-color="#FFFFFF" stop-opacity="0.85"/>
<stop offset="1" stop-color="#FFFFFF" stop-opacity="0"/>
</radialGradient>
<filter id="softShadow" x="-40%" y="-30%" width="180%" height="200%">
<feDropShadow dx="0" dy="2.5" stdDeviation="2.5" flood-color="#4C0F99" flood-opacity="0.5"/>
</filter>
<clipPath id="bubbleClip">
<path d="M66 31.6492C66 33.0482 65.2275 34.3896 63.852 35.3789C62.4768 36.3681 60.6117 36.9238 58.6668 36.9238H14.6667L0 47.4737V5.27486C0 3.87587 0.77262 2.5342 2.14788 1.54497C3.52314 0.555739 5.38842 0 7.33332 0H58.6668C60.6117 0 62.4768 0.555739 63.852 1.54497C65.2275 2.5342 66 3.87587 66 5.27486V31.6492Z"/>
</clipPath>
</defs>

<path d="M66 31.6492C66 33.0482 65.2275 34.3896 63.852 35.3789C62.4768 36.3681 60.6117 36.9238 58.6668 36.9238H14.6667L0 47.4737V5.27486C0 3.87587 0.77262 2.5342 2.14788 1.54497C3.52314 0.555739 5.38842 0 7.33332 0H58.6668C60.6117 0 62.4768 0.555739 63.852 1.54497C65.2275 2.5342 66 3.87587 66 5.27486V31.6492Z" fill="url(#baseGrad)" filter="url(#softShadow)"/>

<g clip-path="url(#bubbleClip)">
<rect x="0" y="0" width="66" height="48" fill="url(#bottomShade)"/>
<rect x="0" y="0" width="66" height="48" fill="url(#cornerGlow)"/>
<ellipse cx="22" cy="7" rx="28" ry="9" fill="url(#topSheen)"/>
</g>
</svg>
