<svg xmlns="http://www.w3.org/2000/svg" viewBox="0 0 265 100">
  <defs><linearGradient id="bubbleGrad3" x1="10" y1="20" x2="108" y2="102" gradientUnits="userSpaceOnUse">
  <stop offset="0" stop-color="#9b4dff"/>
  <stop offset="0.55" stop-color="#7e14ff"/>
  <stop offset="1" stop-color="#1fb872"/>
</linearGradient>
<radialGradient id="nebulaGlow3" cx="0.42" cy="0.4" r="0.65">
  <stop offset="0" stop-color="#ffffff" stop-opacity="0.55"/>
  <stop offset="0.5" stop-color="#c9a8ff" stop-opacity="0.16"/>
  <stop offset="1" stop-color="#ffffff" stop-opacity="0"/>
</radialGradient>
<radialGradient id="sparkGlow3" cx="0.5" cy="0.5" r="0.5">
  <stop offset="0" stop-color="#ffffff" stop-opacity="0.9"/>
  <stop offset="1" stop-color="#ffffff" stop-opacity="0"/>
</radialGradient>
<filter id="softBlur3" x="-60%" y="-60%" width="220%" height="220%">
  <feGaussianBlur stdDeviation="4.2"/>
</filter>
<clipPath id="bubbleClip3">
  <path d="M28 12h64c11 0 20 9 20 20v40c0 11-9 20-20 20H55.5L34 111.5c-2.4 2.4-6.5.7-6.5-2.7V92H28c-11 0-20-9-20-20V32c0-11 9-20 20-20z"/>
</clipPath></defs>
  <g transform="translate(4,4) scale(0.8)">
    <path fill="url(#bubbleGrad3)" d="M28 12h64c11 0 20 9 20 20v40c0 11-9 20-20 20H55.5L34 111.5c-2.4 2.4-6.5.7-6.5-2.7V92H28c-11 0-20-9-20-20V32c0-11 9-20 20-20z"/>
    <g clip-path="url(#bubbleClip3)">
      <rect x="0" y="0" width="120" height="120" fill="url(#nebulaGlow3)"/>
      <circle cx="24" cy="30" r="1.6" fill="#ffffff" opacity="0.85"/>
      <circle cx="90" cy="24" r="1.3" fill="#ffffff" opacity="0.6"/>
      <circle cx="97" cy="58" r="1.8" fill="#ffffff" opacity="0.7"/>
      <circle cx="20" cy="66" r="1.2" fill="#ffffff" opacity="0.55"/>
      <ellipse cx="61" cy="52" rx="30" ry="12" transform="rotate(-18 61 52)" fill="none" stroke="#ffffff" stroke-opacity="0.4" stroke-width="1.6"/>
      <circle cx="87.5" cy="41" r="3.2" fill="#baffde"/>
      <circle cx="87.5" cy="41" r="5.5" fill="#baffde" opacity="0.35"/>
      <circle cx="61" cy="52" r="24" fill="url(#sparkGlow3)" filter="url(#softBlur3)"/>
      <path fill="#ffffff" d="M62 30c1.8 14 5.4 20.2 19.6 23.4C67.4 56.8 63.8 63 62 77c-1.8-14-5.4-20.2-19.6-23.4C56.6 50.2 60.2 44 62 30z"/>
      <path fill="#ffffff" opacity="0.9" d="M85 66c0.7 5.4 2 7.6 7.2 8.8-5.2 1.2-6.5 3.4-7.2 8.8-0.7-5.4-2-7.6-7.2-8.8 5.2-1.2 6.5-3.4 7.2-8.8z"/>
    </g>
  </g>
  <g fill="#f8fafc" ><path d="M560 405H715V501Q715 548 681 580Q647 611 597 611Q548 611 515 579Q482 547 482 501Q482 476 487 454Q493 432 509 419Q526 405 560 405ZM594 1043Q828 1043 998 866V865H999Q1156 686 1156 426V52Q1155 -96 1112 -205Q1070 -313 1005 -388Q942 -461 877 -511L875 -513Q836 -540 769 -570Q701 -600 578 -619Q473 -636 310 -636H151V-84H224Q297 -83 393.0 -83.0Q489 -83 559 -83H720Q722 -83 726.0 -80.5Q730 -78 730 -73Q730 -68 726.0 -65.5Q722 -63 720 -63Q636 -63 546.0 -55.0Q456 -47 372.5 -21.5Q289 4 223.0 57.5Q157 111 117.5 200.5Q78 290 78 426Q78 601 127.5 719.5Q177 838 255.0 909.5Q333 981 423.0 1012.0Q513 1043 594 1043Z" transform="translate(120.00,70.00) scale(0.030000,-0.030000)"/><path d="M560 405H715V501Q715 548 681 580Q647 611 597 611Q548 611 515 579Q482 547 482 501Q482 476 487 454Q493 432 509 419Q526 405 560 405ZM1155 458H1242V-98H1142Q1132 -156 1112 -205Q1070 -313 1005 -388Q942 -461 877 -511L875 -513Q836 -540 769 -570Q701 -600 578 -619Q473 -636 310 -636H151V-84H152Q159 -84 224 -83H720Q722 -83 726.0 -80.5Q730 -78 730 -73Q730 -68 726.0 -65.5Q722 -63 720 -63Q636 -63 546.0 -55.0Q456 -47 372.5 -21.5Q289 4 223.0 57.5Q157 111 117.5 200.5Q78 290 78 426Q78 601 127.5 719.5Q177 838 255.0 909.5Q333 981 423.0 1012.0Q513 1043 594 1043Q828 1043 998 866V865H999Q1146 697 1155 458Z" transform="translate(156.87,70.00) scale(0.030000,-0.030000)"/><path d="M935 -98Q783 -98 656 -29Q622 -46 587 -59Q478 -98 343 -98H-15V458H402V773H909V458H1053V-98ZM253 -158 473 -377 253 -597 34 -377ZM722 -158 942 -377 722 -597 503 -377Z" transform="translate(193.68,70.00) scale(0.030000,-0.030000)"/><path d="M-15 -98V458H248Q247 458 238.0 506.0Q229 554 217.0 616.0Q205 678 196 726L186 774L677 923L688 866Q698 808 713.5 726.0Q729 644 743 565Q759 483 759 413Q759 375 754 341Q747 278 723.0 206.0Q699 134 657 81Q566 -29 451 -69H449Q356 -98 234 -98ZM594 1223 360 990 127 1223 360 1457Z" transform="translate(224.82,70.00) scale(0.030000,-0.030000)"/></g>
</svg>