<svg width="77" height="54" viewBox="0 0 77 54" fill="none" xmlns="http://www.w3.org/2000/svg">
<path d="M77 37.6492C77 39.0482 76.2275 40.3896 74.852 41.3789C73.4768 42.3681 71.6117 42.9238 69.6668 42.9238H25.6667L11 53.4737V11.2749C11 9.87587 11.7726 8.5342 13.1479 7.54497C14.5231 6.55574 16.3884 6 18.3333 6H69.6668C71.6117 6 73.4768 6.55574 74.852 7.54497C76.2275 8.5342 77 9.87587 77 11.2749V37.6492Z" fill="url(#paint0_linear_49_5)"/>
<path d="M66 31.6492C66 33.0482 65.2275 34.3896 63.852 35.3789C62.4768 36.3681 60.6117 36.9238 58.6668 36.9238H14.6667L0 47.4737V5.27486C0 3.87587 0.77262 2.5342 2.14788 1.54497C3.52314 0.555739 5.38842 0 7.33332 0H58.6668C60.6117 0 62.4768 0.555739 63.852 1.54497C65.2275 2.5342 66 3.87587 66 5.27486V31.6492Z" fill="url(#paint1_linear_49_5)"/>
<defs>
<linearGradient id="paint0_linear_49_5" x1="11" y1="6" x2="76.6643" y2="42.214" gradientUnits="userSpaceOnUse">
<stop stop-color="#9B4DFF"/>
<stop offset="0.539236" stop-color="#821CFF"/>
<stop offset="0.55" stop-color="#7E14FF"/>
<stop offset="1" stop-color="#1FB872"/>
</linearGradient>
<linearGradient id="paint1_linear_49_5" x1="0" y1="0" x2="65.6643" y2="36.214" gradientUnits="userSpaceOnUse">
<stop stop-color="#9B4DFF"/>
<stop offset="0.539236" stop-color="#821CFF"/>
<stop offset="0.55" stop-color="#7E14FF"/>
<stop offset="1" stop-color="#1FB872"/>
</linearGradient>
</defs>
</svg>
