<svg width="62" height="19" viewBox="0 0 62 19" fill="none" xmlns="http://www.w3.org/2000/svg">
<path d="M23 12.6667C23 13.1382 22.7425 13.5903 22.284 13.9237C21.8256 14.2571 21.2039 14.4444 20.5556 14.4444H5.88889L1 18V3.77778C1 3.30628 1.25754 2.8541 1.71596 2.5207C2.17438 2.1873 2.79614 2 3.44444 2H20.5556C21.2039 2 21.8256 2.1873 22.284 2.5207C22.7425 2.8541 23 3.30628 23 3.77778V12.6667Z" stroke="url(#paint0_linear_48_2)" stroke-width="2" stroke-linecap="round" stroke-linejoin="round"/>
<path d="M27 14.5396V8.09961H28.81L30.93 11.0696V8.09961H33.08V14.5396H31.25L29.15 11.5796V14.5396H27ZM35.8848 14.5396V8.09961H38.0348V14.5396H35.8848Z" fill="#00D492"/>
<path d="M43.1038 14.54L40.6338 8.1H42.8738L44.2238 12.02L45.5838 8.1H47.8338L45.3538 14.54H43.1038ZM53.1034 14.64C52.3834 14.64 51.7734 14.53 51.2734 14.31C50.7734 14.09 50.3901 13.7367 50.1234 13.25C49.8634 12.7633 49.7334 12.1233 49.7334 11.33C49.7334 10.5233 49.8634 9.87667 50.1234 9.39C50.3901 8.90333 50.7734 8.55 51.2734 8.33C51.7734 8.11 52.3834 8 53.1034 8C53.8234 8 54.4334 8.11 54.9334 8.33C55.4334 8.55 55.8134 8.90333 56.0734 9.39C56.3401 9.87667 56.4734 10.5233 56.4734 11.33C56.4734 12.1233 56.3401 12.7633 56.0734 13.25C55.8134 13.7367 55.4334 14.09 54.9334 14.31C54.4334 14.53 53.8234 14.64 53.1034 14.64ZM53.1034 12.82C53.5167 12.82 53.8134 12.7033 53.9934 12.47C54.1801 12.2367 54.2734 11.8567 54.2734 11.33C54.2734 10.7767 54.1801 10.39 53.9934 10.17C53.8134 9.94333 53.5167 9.83 53.1034 9.83C52.6834 9.83 52.3801 9.94333 52.1934 10.17C52.0134 10.39 51.9234 10.7767 51.9234 11.33C51.9234 11.8567 52.0134 12.2367 52.1934 12.47C52.3801 12.7033 52.6834 12.82 53.1034 12.82ZM58.7121 14.54L59.2061 13.252H59.6561L60.1521 14.54H59.7041L59.6041 14.284H59.2581L59.1601 14.54H58.7121ZM59.3101 13.984H59.5521L59.4301 13.672L59.3101 13.984ZM60.6716 14.54V13.252H61.1016V14.54H60.6716Z" fill="white"/>
<defs>
<linearGradient id="paint0_linear_48_2" x1="1" y1="2" x2="23" y2="18" gradientUnits="userSpaceOnUse">
<stop stop-color="#9B4DFF"/>
<stop offset="0.55" stop-color="#7E14FF"/>
<stop offset="1" stop-color="#1FB872"/>
</linearGradient>
</defs>
</svg>
