<svg xmlns="http://www.w3.org/2000/svg" viewBox="0 0 120 120">
  <defs>
    <linearGradient id="appGrad" x1="16" y1="16" x2="104" y2="104" gradientUnits="userSpaceOnUse">
      <stop offset="0" stop-color="#9b4dff"/>
      <stop offset="0.55" stop-color="#7e14ff"/>
      <stop offset="1" stop-color="#1fb872"/>
    </linearGradient>
    <radialGradient id="appNebula" cx="0.4" cy="0.38" r="0.7">
      <stop offset="0" stop-color="#ffffff" stop-opacity="0.5"/>
      <stop offset="0.5" stop-color="#c9a8ff" stop-opacity="0.15"/>
      <stop offset="1" stop-color="#ffffff" stop-opacity="0"/>
    </radialGradient>
    <radialGradient id="appSparkGlow" cx="0.5" cy="0.5" r="0.5">
      <stop offset="0" stop-color="#ffffff" stop-opacity="0.9"/>
      <stop offset="1" stop-color="#ffffff" stop-opacity="0"/>
    </radialGradient>
    <filter id="appBlur" x="-60%" y="-60%" width="220%" height="220%">
      <feGaussianBlur stdDeviation="3.6"/>
    </filter>
    <clipPath id="appClip">
      <rect x="16" y="16" width="88" height="88" rx="20"/>
    </clipPath>
  </defs>
  <rect width="120" height="120" rx="26" fill="#0f172a"/>
  <rect x="16" y="16" width="88" height="88" rx="20" fill="url(#appGrad)"/>
  <g clip-path="url(#appClip)">
    <rect x="16" y="16" width="88" height="88" fill="url(#appNebula)"/>
    <circle cx="32" cy="34" r="1.3" fill="#ffffff" opacity="0.8"/>
    <circle cx="90" cy="30" r="1.1" fill="#ffffff" opacity="0.55"/>
    <circle cx="30" cy="80" r="1" fill="#ffffff" opacity="0.5"/>
    <ellipse cx="61" cy="58" rx="26" ry="10.5" transform="rotate(-18 61 58)" fill="none" stroke="#ffffff" stroke-opacity="0.4" stroke-width="1.6"/>
    <circle cx="83.5" cy="48.5" r="2.8" fill="#baffde"/>
    <circle cx="83.5" cy="48.5" r="5" fill="#baffde" opacity="0.35"/>
    <circle cx="60" cy="58" r="20" fill="url(#appSparkGlow)" filter="url(#appBlur)"/>
    <path fill="#ffffff" d="M60 38c1.6 12.2 4.7 17.6 17 20.4C64.7 61.2 61.6 66.6 60 78.8c-1.6-12.2-4.7-17.6-17-20.4C55.3 55.6 58.4 50.2 60 38z"/>
    <path fill="#ffffff" opacity="0.9" d="M82 70c0.6 4.6 1.7 6.5 6.1 7.5-4.4 1-5.5 2.9-6.1 7.5-0.6-4.6-1.7-6.5-6.1-7.5 4.4-1 5.5-2.9 6.1-7.5z"/>
  </g>
</svg>
