<svg width="62" height="19" viewBox="0 0 62 19" fill="none" xmlns="http://www.w3.org/2000/svg">
<defs>
<linearGradient id="bubbleStrokeGrad" x1="1" y1="2" x2="23" y2="18" gradientUnits="userSpaceOnUse">
<stop offset="0" stop-color="#9b4dff"/>
<stop offset="0.55" stop-color="#7e14ff"/>
<stop offset="1" stop-color="#1fb872"/>
</linearGradient>
</defs>
<path d="M23 12.6667C23 13.1382 22.7425 13.5903 22.284 13.9237C21.8256 14.2571 21.2039 14.4444 20.5556 14.4444H5.88889L1 18V3.77778C1 3.30628 1.25754 2.8541 1.71596 2.5207C2.17438 2.1873 2.79614 2 3.44444 2H20.5556C21.2039 2 21.8256 2.1873 22.284 2.5207C22.7425 2.8541 23 3.30628 23 3.77778V12.6667Z" stroke="url(#bubbleStrokeGrad)" stroke-width="2" stroke-linecap="round" stroke-linejoin="round"/>
<path d="M27.4 11V4.56H29.21L31.33 7.53V4.56H33.48V11H31.65L29.55 8.04V11H27.4ZM36.2848 11V4.56H38.4348V11H36.2848Z" fill="#00D492"/>
<path d="M43.504 11L41.034 4.56H43.274L44.624 8.48L45.984 4.56H48.234L45.754 11H43.504ZM53.5036 11.1C52.7836 11.1 52.1736 10.99 51.6736 10.77C51.1736 10.55 50.7903 10.1967 50.5236 9.71C50.2636 9.22333 50.1336 8.58333 50.1336 7.79C50.1336 6.98333 50.2636 6.33667 50.5236 5.85C50.7903 5.36333 51.1736 5.01 51.6736 4.79C52.1736 4.57 52.7836 4.46 53.5036 4.46C54.2236 4.46 54.8336 4.57 55.3336 4.79C55.8336 5.01 56.2136 5.36333 56.4736 5.85C56.7403 6.33667 56.8736 6.98333 56.8736 7.79C56.8736 8.58333 56.7403 9.22333 56.4736 9.71C56.2136 10.1967 55.8336 10.55 55.3336 10.77C54.8336 10.99 54.2236 11.1 53.5036 11.1ZM53.5036 9.28C53.9169 9.28 54.2136 9.16333 54.3936 8.93C54.5803 8.69667 54.6736 8.31667 54.6736 7.79C54.6736 7.23667 54.5803 6.85 54.3936 6.63C54.2136 6.40333 53.9169 6.29 53.5036 6.29C53.0836 6.29 52.7803 6.40333 52.5936 6.63C52.4136 6.85 52.3236 7.23667 52.3236 7.79C52.3236 8.31667 52.4136 8.69667 52.5936 8.93C52.7803 9.16333 53.0836 9.28 53.5036 9.28ZM59.1123 11L59.6063 9.712H60.0563L60.5523 11H60.1043L60.0043 10.744H59.6583L59.5603 11H59.1123ZM59.7103 10.444H59.9523L59.8303 10.132L59.7103 10.444ZM61.0718 11V9.712H61.5018V11H61.0718Z" fill="white"/>
</svg>
