<svg xmlns="http://www.w3.org/2000/svg" viewBox="0 0 370 100">
  <defs><linearGradient id="bubbleGrad1" x1="10" y1="20" x2="108" y2="102" gradientUnits="userSpaceOnUse">
  <stop offset="0" stop-color="#9b4dff"/>
  <stop offset="0.55" stop-color="#7e14ff"/>
  <stop offset="1" stop-color="#1fb872"/>
</linearGradient>
<radialGradient id="nebulaGlow1" cx="0.42" cy="0.4" r="0.65">
  <stop offset="0" stop-color="#ffffff" stop-opacity="0.55"/>
  <stop offset="0.5" stop-color="#c9a8ff" stop-opacity="0.16"/>
  <stop offset="1" stop-color="#ffffff" stop-opacity="0"/>
</radialGradient>
<radialGradient id="sparkGlow1" cx="0.5" cy="0.5" r="0.5">
  <stop offset="0" stop-color="#ffffff" stop-opacity="0.9"/>
  <stop offset="1" stop-color="#ffffff" stop-opacity="0"/>
</radialGradient>
<filter id="softBlur1" x="-60%" y="-60%" width="220%" height="220%">
  <feGaussianBlur stdDeviation="4.2"/>
</filter>
<clipPath id="bubbleClip1">
  <path d="M28 12h64c11 0 20 9 20 20v40c0 11-9 20-20 20H55.5L34 111.5c-2.4 2.4-6.5.7-6.5-2.7V92H28c-11 0-20-9-20-20V32c0-11 9-20 20-20z"/>
</clipPath></defs>
  <g transform="translate(4,4) scale(0.8)">
    <path fill="url(#bubbleGrad1)" d="M28 12h64c11 0 20 9 20 20v40c0 11-9 20-20 20H55.5L34 111.5c-2.4 2.4-6.5.7-6.5-2.7V92H28c-11 0-20-9-20-20V32c0-11 9-20 20-20z"/>
    <g clip-path="url(#bubbleClip1)">
      <rect x="0" y="0" width="120" height="120" fill="url(#nebulaGlow1)"/>
      <circle cx="24" cy="30" r="1.6" fill="#ffffff" opacity="0.85"/>
      <circle cx="90" cy="24" r="1.3" fill="#ffffff" opacity="0.6"/>
      <circle cx="97" cy="58" r="1.8" fill="#ffffff" opacity="0.7"/>
      <circle cx="20" cy="66" r="1.2" fill="#ffffff" opacity="0.55"/>
      <ellipse cx="61" cy="52" rx="30" ry="12" transform="rotate(-18 61 52)" fill="none" stroke="#ffffff" stroke-opacity="0.4" stroke-width="1.6"/>
      <circle cx="87.5" cy="41" r="3.2" fill="#baffde"/>
      <circle cx="87.5" cy="41" r="5.5" fill="#baffde" opacity="0.35"/>
      <circle cx="61" cy="52" r="24" fill="url(#sparkGlow1)" filter="url(#softBlur1)"/>
      <path fill="#ffffff" d="M62 30c1.8 14 5.4 20.2 19.6 23.4C67.4 56.8 63.8 63 62 77c-1.8-14-5.4-20.2-19.6-23.4C56.6 50.2 60.2 44 62 30z"/>
      <path fill="#ffffff" opacity="0.9" d="M85 66c0.7 5.4 2 7.6 7.2 8.8-5.2 1.2-6.5 3.4-7.2 8.8-0.7-5.4-2-7.6-7.2-8.8 5.2-1.2 6.5-3.4 7.2-8.8z"/>
    </g>
  </g>
  <g fill="#f8fafc" ><path d="M1137 1540H1643V0H1217L631 700V0H125V1540H552L1137 840Z" transform="translate(122.00,68.00) scale(0.028182,-0.028182)"/><path d="M359 1300Q222 1300 140.5 1373.0Q59 1446 59 1553Q59 1660 140.5 1733.0Q222 1806 359 1806Q496 1806 577.0 1737.5Q658 1669 658 1562Q658 1448 577.0 1374.0Q496 1300 359 1300ZM110 0V1203H607V0Z" transform="translate(171.85,68.00) scale(0.028182,-0.028182)"/><path d="M979 1203H1450L966 0H451L-33 1203H477L719 559Z" transform="translate(192.06,68.00) scale(0.028182,-0.028182)"/><path d="M746 -22Q542 -22 384.0 58.0Q226 138 136.0 279.0Q46 420 46 603Q46 785 136.0 925.5Q226 1066 384.0 1145.5Q542 1225 746 1225Q950 1225 1108.0 1145.5Q1266 1066 1355.5 925.5Q1445 785 1445 603Q1445 420 1355.5 279.0Q1266 138 1108.0 58.0Q950 -22 746 -22ZM746 365Q828 365 885.0 425.5Q942 486 942 603Q942 681 916.0 733.5Q890 786 845.5 812.0Q801 838 746 838Q691 838 646.5 812.0Q602 786 576.0 733.5Q550 681 550 603Q550 486 606.5 425.5Q663 365 746 365Z" transform="translate(231.99,68.00) scale(0.028182,-0.028182)"/></g>
  <g fill="#34d399" ><path d="M1278 0 1175 268H590L486 0H-42L631 1540H1142L1815 0ZM733 642H1032L882 1030Z" transform="translate(282.04,68.00) scale(0.028182,-0.028182)"/><path d="M125 0V1540H645V0Z" transform="translate(332.01,68.00) scale(0.028182,-0.028182)"/></g>
</svg>